<svg xmlns="http://www.w3.org/2000/svg" xmlns:xlink="http://www.w3.org/1999/xlink" version="1.1" id="Layer_1" x="0px" y="0px" width="100%" viewBox="0 0 496 496" enable-background="new 0 0 496 496" xml:space="preserve">
<path fill="#000000" opacity="1.000000" stroke="none" d=" M292.121338,310.040283   C311.684509,304.163239 329.731873,296.312622 343.630371,281.246246   C350.872467,273.395569 350.907166,268.111481 344.562317,259.247772   C343.808746,258.195038 343.445770,256.325470 344.249725,256.108063   C349.875031,254.586945 353.787292,248.549866 360.630310,250.177261   C366.123383,251.483612 370.298584,257.604858 369.028168,263.469910   C368.286591,266.893677 367.217712,270.331848 364.988281,273.079041   C357.721466,282.033478 356.063141,292.509918 356.209381,303.572571   C356.253418,306.902588 357.465149,311.838684 352.493195,311.815338   C347.604126,311.792358 348.939667,306.818695 348.769501,303.529785   C348.650940,301.238525 348.746674,298.936218 348.746674,296.350433   C346.122559,296.837524 346.465027,298.491730 346.300079,299.854279   C346.035522,302.039337 347.143280,304.819885 344.178162,305.923401   C341.217773,307.025177 341.190491,303.393890 338.885803,302.327393   C326.481628,311.026642 312.409607,316.834808 298.037201,322.024689   C297.501923,322.217987 297.332642,323.424805 297.003601,324.135956   C291.020020,321.882965 285.523254,324.496643 280.101685,325.798340   C277.606049,326.397491 274.958099,327.135895 272.508911,327.368011   C263.088196,328.260773 253.588226,328.300385 244.159760,329.133118   C233.068451,330.112732 222.877991,326.300995 212.443680,323.802734   C205.744278,322.198700 198.673050,321.036987 192.677109,317.925842   C186.963196,314.961060 181.045532,312.365631 175.412079,309.236145   C174.695633,308.838135 174.013412,308.303040 172.962067,308.821136   C172.020721,310.590942 172.487976,312.575317 172.665527,314.520325   C172.845825,316.495422 172.691177,318.539490 170.350784,318.750305   C168.211548,318.943054 167.901947,316.945160 167.682617,315.232208   C167.240601,311.779999 166.779694,308.330231 166.242157,304.236511   C161.865265,307.733490 159.731415,306.177673 159.255829,301.446564   C158.936554,298.270599 157.153030,296.016998 155.072037,293.750183   C149.173752,287.325226 144.880371,280.165344 145.610748,270.935333   C145.744507,269.244904 146.019058,267.649597 146.807846,266.137604   C147.766327,264.300385 148.783722,262.588654 151.269791,262.851349   C153.564224,263.093781 154.378464,264.854919 154.571182,266.684784   C156.344421,283.521545 168.387421,291.600159 181.661545,298.638153   C194.708725,305.555817 208.543747,310.274750 223.082397,312.717285   C246.115387,316.586884 269.051453,316.445648 292.121338,310.040283  z"/>
<path fill="#000000" opacity="1.000000" stroke="none" d=" M287.831665,200.732727   C285.428528,201.342499 284.048950,202.186356 284.239166,204.861588   C284.379364,206.833755 285.047333,209.735947 281.872559,209.993652   C278.891510,210.235626 278.826874,207.592682 278.464569,205.436966   C278.302917,204.475189 277.862091,203.560318 277.483459,202.431931   C272.924194,205.902527 275.852875,210.399323 275.412048,214.311829   C275.340698,214.945068 275.621124,215.616486 275.730194,216.271713   C276.211823,219.164276 277.645844,223.183319 273.519379,223.685898   C268.648285,224.279190 269.982483,219.664841 269.670013,216.752243   C269.386597,214.110291 269.149506,211.463348 268.861725,208.821899   C268.228912,203.013321 264.945526,200.671387 258.998535,201.664490   C256.379639,202.101807 253.741913,202.486313 251.096939,202.690170   C248.624069,202.880798 246.894989,201.632141 246.314468,199.209076   C245.753311,196.866913 247.118256,195.245041 249.078110,194.486908   C251.381729,193.595840 253.849152,193.072281 256.285187,192.589340   C266.902435,190.484451 273.641876,184.417267 277.985809,174.311691   C287.838654,151.390381 299.017700,129.081772 312.093262,107.785164   C315.678741,101.945419 321.216644,101.983757 324.631500,107.892342   C339.194855,133.090668 348.674133,160.040253 352.421967,188.964310   C352.913605,192.758530 352.943176,195.946457 351.220520,199.856766   C349.364532,204.069702 345.507080,200.208572 344.424866,203.963257   C340.271454,197.522095 339.851044,190.859024 338.715485,184.410950   C335.322449,165.143616 329.570923,146.615311 321.280426,128.890533   C320.457092,127.130295 319.830688,125.164276 317.785370,123.828438   C313.928528,127.398666 312.064911,132.291092 309.578125,136.671173   C301.525269,150.854965 294.417725,165.529907 287.606201,180.351105   C285.821136,184.235260 286.692200,187.238129 288.604431,190.931168   C289.953857,193.537277 289.082336,197.334793 287.831665,200.732727  z"/>
<path fill="#000000" opacity="1.000000" stroke="none" d=" M238.084930,281.838257   C231.871826,274.423859 229.843826,265.686432 228.231155,256.209259   C216.186615,259.661835 204.113068,260.897339 193.010696,266.001923   C189.915405,267.425018 187.311569,265.639191 186.125717,262.944611   C184.669830,259.636444 187.278336,257.969940 189.953522,257.174774   C200.792816,253.952972 211.608643,250.605881 222.570908,247.853760   C245.512497,242.094193 268.881348,238.672836 292.431152,236.856979   C307.463043,235.697937 322.581390,234.758469 337.537292,236.482864   C339.773987,244.117844 336.092834,246.489761 329.489410,246.466095   C318.015778,246.424942 306.538818,246.974457 295.065399,247.344391   C288.690521,247.549911 288.056946,248.163086 288.284149,254.795059   C288.514771,261.527191 287.884033,268.077240 285.426361,274.395386   C277.558502,294.622253 253.373810,300.475769 238.084930,281.838257  M256.598297,282.096222   C262.044189,283.711151 266.890411,282.490814 270.803162,278.505768   C278.880768,270.278870 280.157867,260.031525 279.654785,248.664795   C275.419617,249.080063 271.825897,249.508881 268.219879,249.764954   C264.445740,250.033005 263.727173,252.416351 263.802216,255.582336   C263.932220,261.069763 262.946289,266.560455 264.172455,272.058868   C264.594818,273.952972 263.690796,275.766235 261.401672,276.053345   C259.402527,276.304016 258.469727,274.939178 257.787659,273.277954   C255.931305,268.756500 255.455429,263.941254 254.915024,259.174255   C254.107513,252.051086 253.979477,251.823318 246.983826,252.722305   C245.999390,252.848801 245.038879,253.211197 244.054489,253.279312   C241.037918,253.488007 239.915314,255.234909 240.380264,257.985382   C242.098663,268.150940 245.334259,277.378021 256.598297,282.096222  z"/>
<path fill="#000000" opacity="1.000000" stroke="none" d=" M162.128250,226.619064   C162.590302,227.488342 162.886642,228.081711 163.183701,228.674698   C164.365158,231.033051 164.512268,233.423157 161.912125,234.708710   C159.314316,235.993118 156.166016,235.013000 154.853561,232.982956   C145.545349,218.585632 133.121384,207.173492 120.482994,195.895187   C117.494637,193.228409 115.384491,189.692764 111.639290,187.682159   C110.105537,186.858749 110.530373,184.817337 111.836906,183.313065   C113.479507,181.421844 115.250961,179.847595 117.820930,181.265991   C119.697258,182.301559 121.420540,183.676682 123.049484,185.088058   C133.144135,193.834503 142.255753,203.541534 150.837326,213.758163   C152.651581,215.918091 154.409409,218.136185 157.264526,219.357346   C156.558411,209.512360 161.099197,201.071167 164.399933,192.460083   C172.281311,171.898895 182.558121,152.527710 195.341797,134.535751   C199.152924,129.171890 204.017761,129.135315 207.614517,135.019531   C213.716080,145.001556 217.773727,155.953171 221.813309,166.886398   C224.986786,175.475555 227.418457,184.274185 229.310349,193.228500   C230.728607,199.941147 229.468140,203.261307 225.125687,204.134048   C220.759171,205.011627 216.620041,201.634659 215.888397,195.761124   C214.137634,181.705994 208.888794,168.779404 203.579697,155.857071   C202.791214,153.937943 202.254593,151.706802 199.372086,150.220871   C183.119843,171.301804 173.163269,195.647064 163.641983,220.236282   C163.118042,221.597397 165.183319,221.720566 165.366135,223.391891   C165.140747,225.173019 161.313705,223.393814 162.128250,226.619064  z"/>
<path fill="#000000" opacity="1.000000" stroke="none" d=" M347.468750,216.533920   C352.200073,209.628906 357.360046,203.548203 363.183868,198.063705   C365.772461,195.625946 368.194061,193.225906 367.990143,189.030396   C374.115570,189.790024 377.469757,185.388046 381.571167,182.548050   C387.535095,178.418396 390.507294,178.001160 392.839417,181.381973   C395.125885,184.696579 393.759888,187.201859 387.538544,191.316818   C375.520294,199.265976 364.855499,208.683197 356.137421,220.230667   C354.742706,222.078064 353.151489,223.816849 351.439453,225.373016   C349.926453,226.748322 348.073212,227.713852 346.057129,226.150543   C344.150726,224.672287 344.181000,222.745026 345.114044,220.766983   C345.750183,219.418365 346.548065,218.146042 347.468750,216.533920  z"/>
<path fill="#000000" opacity="1.000000" stroke="none" d=" M127.533867,236.367584   C121.611923,232.988251 116.360710,228.990982 109.765457,227.244003   C106.295570,226.324890 107.279907,222.370255 108.088379,219.892456   C109.157021,216.617340 112.088448,216.020035 115.046097,217.531570   C120.815659,220.480240 126.476807,223.640839 132.186707,226.706512   C135.344528,228.401978 138.237885,230.338409 142.264008,230.208038   C144.062241,230.149796 148.025696,230.240494 147.458511,234.562607   C147.286804,235.871017 149.002792,236.218781 149.981979,236.644180   C155.301529,238.955307 157.605453,242.743469 155.958069,248.899338   C153.866501,247.650986 151.883774,248.723404 150.701843,249.439545   C143.532578,243.450790 135.797562,239.706314 127.533867,236.367584  z"/>
<path fill="#000000" opacity="1.000000" stroke="none" d=" M360.395386,236.316406   C357.358124,237.844345 353.962128,238.104202 352.476074,241.576675   C348.967896,235.239929 349.876495,231.478821 355.689606,228.598969   C367.179138,222.906998 378.765656,217.410736 390.316284,211.842285   C393.667175,210.226822 397.059082,209.795868 398.816284,213.783249   C400.533722,217.680466 397.489838,219.277557 394.554688,220.939651   C388.845917,224.172394 382.831757,226.893860 377.126526,230.104706   C372.425537,232.750366 366.286926,234.308823 360.395386,236.316406  z"/>
<path fill="#000000" opacity="1.000000" stroke="none" d=" M205.220795,213.576279   C211.417862,219.394730 217.375977,224.924683 223.278214,230.513641   C225.684952,232.792618 227.832535,235.412613 224.998169,238.637817   C222.141556,241.888367 219.183472,240.027100 216.706436,237.933289   C210.372437,232.579239 204.194321,227.041183 197.921005,221.614700   C195.015503,219.101425 192.966156,216.230331 195.905579,212.691177   C198.943527,209.033432 202.084641,210.869415 205.220795,213.576279  z"/>
<path fill="#000000" opacity="1.000000" stroke="none" d=" M307.651733,226.694687   C305.088531,228.290329 302.812225,229.652420 300.597321,231.107880   C298.207703,232.678162 295.789856,232.807083 293.822754,230.714630   C291.724640,228.482849 292.469269,225.974380 294.385712,224.052170   C300.843994,217.574402 308.732819,213.404144 317.376617,210.725952   C320.350800,209.804428 323.149200,210.871445 324.045929,214.224091   C324.934937,217.548035 323.727325,220.086090 320.280884,221.266754   C316.050415,222.716003 311.741119,223.981827 307.651733,226.694687  z"/>
</svg>